solid 
facet normal -0.000000e+00 0.000000e+00 -1.000000e+00
outer loop 
vertex 0.000000e+00 1.693333e-02 -3.900000e-01 
vertex 0.000000e+00 2.540000e-02 -3.900000e-01 
vertex 8.466667e-03 2.540000e-02 -3.900000e-01 
end loop 
end facet 
facet normal 0.000000e+00 0.000000e+00 -1.000000e+00
outer loop 
vertex 8.466667e-03 2.540000e-02 -3.900000e-01 
vertex 8.466667e-03 1.693333e-02 -3.900000e-01 
vertex 0.000000e+00 1.693333e-02 -3.900000e-01 
end loop 
end facet 
facet normal -0.000000e+00 0.000000e+00 -1.000000e+00
outer loop 
vertex 8.466667e-03 1.693333e-02 -3.900000e-01 
vertex 8.466667e-03 2.540000e-02 -3.900000e-01 
vertex 1.693333e-02 2.540000e-02 -3.900000e-01 
end loop 
end facet 
facet normal 0.000000e+00 0.000000e+00 -1.000000e+00
outer loop 
vertex 1.693333e-02 2.540000e-02 -3.900000e-01 
vertex 1.693333e-02 1.693333e-02 -3.900000e-01 
vertex 8.466667e-03 1.693333e-02 -3.900000e-01 
end loop 
end facet 
facet normal -0.000000e+00 0.000000e+00 -1.000000e+00
outer loop 
vertex 1.693333e-02 1.693333e-02 -3.900000e-01 
vertex 1.693333e-02 2.540000e-02 -3.900000e-01 
vertex 2.540000e-02 2.540000e-02 -3.900000e-01 
end loop 
end facet 
facet normal 0.000000e+00 0.000000e+00 -1.000000e+00
outer loop 
vertex 2.540000e-02 2.540000e-02 -3.900000e-01 
vertex 2.540000e-02 1.693333e-02 -3.900000e-01 
vertex 1.693333e-02 1.693333e-02 -3.900000e-01 
end loop 
end facet 
facet normal -0.000000e+00 0.000000e+00 -1.000000e+00
outer loop 
vertex 0.000000e+00 8.466667e-03 -3.900000e-01 
vertex 0.000000e+00 1.693333e-02 -3.900000e-01 
vertex 8.466667e-03 1.693333e-02 -3.900000e-01 
end loop 
end facet 
facet normal 0.000000e+00 0.000000e+00 -1.000000e+00
outer loop 
vertex 8.466667e-03 1.693333e-02 -3.900000e-01 
vertex 8.466667e-03 8.466667e-03 -3.900000e-01 
vertex 0.000000e+00 8.466667e-03 -3.900000e-01 
end loop 
end facet 
facet normal -0.000000e+00 0.000000e+00 -1.000000e+00
outer loop 
vertex 8.466667e-03 8.466667e-03 -3.900000e-01 
vertex 8.466667e-03 1.693333e-02 -3.900000e-01 
vertex 1.693333e-02 1.693333e-02 -3.900000e-01 
end loop 
end facet 
facet normal 0.000000e+00 0.000000e+00 -1.000000e+00
outer loop 
vertex 1.693333e-02 1.693333e-02 -3.900000e-01 
vertex 1.693333e-02 8.466667e-03 -3.900000e-01 
vertex 8.466667e-03 8.466667e-03 -3.900000e-01 
end loop 
end facet 
facet normal -0.000000e+00 0.000000e+00 -1.000000e+00
outer loop 
vertex 1.693333e-02 8.466667e-03 -3.900000e-01 
vertex 1.693333e-02 1.693333e-02 -3.900000e-01 
vertex 2.540000e-02 1.693333e-02 -3.900000e-01 
end loop 
end facet 
facet normal 0.000000e+00 0.000000e+00 -1.000000e+00
outer loop 
vertex 2.540000e-02 1.693333e-02 -3.900000e-01 
vertex 2.540000e-02 8.466667e-03 -3.900000e-01 
vertex 1.693333e-02 8.466667e-03 -3.900000e-01 
end loop 
end facet 
facet normal -0.000000e+00 0.000000e+00 -1.000000e+00
outer loop 
vertex 0.000000e+00 0.000000e+00 -3.900000e-01 
vertex 0.000000e+00 8.466667e-03 -3.900000e-01 
vertex 8.466667e-03 8.466667e-03 -3.900000e-01 
end loop 
end facet 
facet normal 0.000000e+00 0.000000e+00 -1.000000e+00
outer loop 
vertex 8.466667e-03 8.466667e-03 -3.900000e-01 
vertex 8.466667e-03 0.000000e+00 -3.900000e-01 
vertex 0.000000e+00 0.000000e+00 -3.900000e-01 
end loop 
end facet 
facet normal -0.000000e+00 0.000000e+00 -1.000000e+00
outer loop 
vertex 8.466667e-03 0.000000e+00 -3.900000e-01 
vertex 8.466667e-03 8.466667e-03 -3.900000e-01 
vertex 1.693333e-02 8.466667e-03 -3.900000e-01 
end loop 
end facet 
facet normal 0.000000e+00 0.000000e+00 -1.000000e+00
outer loop 
vertex 1.693333e-02 8.466667e-03 -3.900000e-01 
vertex 1.693333e-02 0.000000e+00 -3.900000e-01 
vertex 8.466667e-03 0.000000e+00 -3.900000e-01 
end loop 
end facet 
facet normal -0.000000e+00 0.000000e+00 -1.000000e+00
outer loop 
vertex 1.693333e-02 0.000000e+00 -3.900000e-01 
vertex 1.693333e-02 8.466667e-03 -3.900000e-01 
vertex 2.540000e-02 8.466667e-03 -3.900000e-01 
end loop 
end facet 
facet normal 0.000000e+00 0.000000e+00 -1.000000e+00
outer loop 
vertex 2.540000e-02 8.466667e-03 -3.900000e-01 
vertex 2.540000e-02 0.000000e+00 -3.900000e-01 
vertex 1.693333e-02 0.000000e+00 -3.900000e-01 
end loop 
end facet 
end solid 
